:SAMPLES-PER-SECOND 30
:FULLY-SPECIFIED
:DEGREES
261
root  -55.8784 34.9473 29.2913 -173.732 32.1441 176.971
RightUpLeg  -6.64378 -18.3215 -5.68866
RightLeg  12.1315 -7.37114 -1.08958
RightFoot  0.371032 -0.0163864 0.129813
RightToes  -23.4212 -0.094337 -0.199278
Spine  -1.67292 1.98817 -1.72529
Spine1  -3.28112 3.76288 -2.65097
HEad  -59.6647 -16.4155 -7.15331
LeftShoulder1  -1.94126e-019 -3.10601e-018 -2.51263e-017
LeftArm  -7.39648 24.4052 -78.5025
LeftForeArm  28.6375 -20.8892 -3.28205
LeftHand  -0.29497 -0.953613 5.52437
RightShoulder  -4.96962e-017 0 -2.36833e-017
RightArm  1.25679 2.59512 80.1399
RightForeArm  58.6404 70.9525 26.1402
RightHand  -0.316046 -2.38302 -11.9189
LeftUpLeg  -7.13168 -12.1874 -3.03834
LeftLeg  1.21858 8.01854 -0.343981
LeftFoot  8.71069 -0.0916961 1.36546
LeftToes  -16.4422 1.48321e-006 1.01846e-007
262
root  -55.8796 34.946 29.2789 -173.843 32.7933 176.926
RightUpLeg  -6.82027 -17.6448 -5.74905
RightLeg  12.4042 -7.4093 -1.1312
RightFoot  0.301763 -0.0179288 0.140743
RightToes  -23.2738 -0.0945497 -0.199737
Spine  -1.65614 1.88928 -1.59107
Spine1  -3.25202 3.58243 -2.37534
HEad  -60.5806 -13.4675 -9.12746
LeftShoulder1  -1.94126e-019 -3.10601e-018 -2.51263e-017
LeftArm  -6.11295 25.1082 -78.3897
LeftForeArm  28.218 -21.8002 -3.37785
LeftHand  -0.28968 -1.21771 5.23233
RightShoulder  -4.96962e-017 0 -2.36833e-017
RightArm  1.64574 2.51875 80.8895
RightForeArm  57.9246 71.0039 26.3512
RightHand  -0.416419 -1.92361 -13.7696
LeftUpLeg  -6.92314 -11.6885 -3.13574
LeftLeg  1.09898 8.14904 -0.366507
LeftFoot  8.65697 -0.0913333 1.37959
LeftToes  -16.3563 1.48321e-006 1.01846e-007
263
root  -55.8572 34.9535 29.2694 -173.85 33.6578 176.988
RightUpLeg  -6.82155 -17.2952 -5.70059
RightLeg  12.1479 -6.92406 -1.02589
RightFoot  0.452831 -0.0176114 0.125046
RightToes  -23.2172 -0.0947754 -0.200178
Spine  -1.74094 1.90818 -1.50598
Spine1  -3.43567 3.64744 -2.20969
HEad  -61.3816 -11.3184 -10.2559
LeftShoulder1  -1.94126e-019 -3.10601e-018 -2.51263e-017
LeftArm  -4.77438 25.266 -78.3327
LeftForeArm  28.1854 -21.0694 -3.26772
LeftHand  -0.286618 -1.34739 5.08939
RightShoulder  -4.96962e-017 0 -2.36833e-017
RightArm  4.90764 2.60754 81.5544
RightForeArm  56.0573 67.0041 20.5931
RightHand  -0.635484 -1.31365 -17.9858
LeftUpLeg  -6.67194 -11.0581 -3.11522
LeftLeg  0.854481 8.3833 -0.412655
LeftFoot  8.65467 -0.0923736 1.41851
LeftToes  -16.3478 1.48321e-006 1.01846e-007
264
root  -55.8198 34.9588 29.2638 -173.747 34.4921 177.108
RightUpLeg  -6.73041 -17.2286 -5.57671
RightLeg  11.5819 -6.19318 -0.855692
RightFoot  0.703778 -0.0167798 0.101957
RightToes  -23.4842 -0.0950133 -0.200597
Spine  -1.87191 2.05768 -1.51982
Spine1  -3.71485 3.96989 -2.25631
HEad  -61.9533 -10.6413 -10.5308
LeftShoulder1  -1.94126e-019 -3.10601e-018 -2.51263e-017
LeftArm  -4.2739 24.3858 -78.4111
LeftForeArm  29.474 -18.5541 -2.96508
LeftHand  -0.291419 -1.71678 4.93283
RightShoulder  -4.96962e-017 0 -2.36833e-017
RightArm  8.41298 2.80961 82.5583
RightForeArm  55.5952 60.5089 14.7226
RightHand  -0.686591 -1.37158 -19.696
LeftUpLeg  -6.5291 -10.3788 -3.01916
LeftLeg  0.683127 8.54409 -0.446007
LeftFoot  8.61474 -0.092231 1.44047
LeftToes  -16.4126 1.48321e-006 1.01846e-007
265
root  -55.7761 34.9597 29.2601 -173.71 35.188 177.287
RightUpLeg  -6.49927 -16.8703 -5.41297
RightLeg  11.0411 -5.86115 -0.753701
RightFoot  0.860179 -0.0167222 0.089885
RightToes  -23.3212 -0.0952631 -0.200992
Spine  -1.94624 2.35515 -1.53732
Spine1  -3.87889 4.57891 -2.31193
HEad  -62.1921 -11.0486 -10.5519
LeftShoulder1  -1.94126e-019 -3.10601e-018 -2.51263e-017
LeftArm  -4.84924 23.0564 -78.7481
LeftForeArm  31.9193 -15.8549 -2.64192
LeftHand  -0.306996 -1.87097 5.08988
RightShoulder  -4.96962e-017 0 -2.36833e-017
RightArm  10.3589 4.20484 83.772
RightForeArm  53.9751 52.8997 10.6064
RightHand  -0.805796 -0.458293 -18.9104
LeftUpLeg  -6.36077 -9.92209 -2.87688
LeftLeg  0.6681 8.81827 -0.462512
LeftFoot  8.43319 -0.0917178 1.45656
LeftToes  -16.3319 1.48321e-006 1.01846e-007
266
root  -55.7353 34.9577 29.2433 -173.896 35.5911 177.415
RightUpLeg  -6.11916 -16.6859 -5.36884
RightLeg  10.7619 -5.63761 -0.697141
RightFoot  0.934974 -0.0172012 0.0854464
RightToes  -23.3345 -0.0955241 -0.20136
Spine  -1.96373 2.66407 -1.54963
Spine1  -3.92626 5.2057 -2.35651
HEad  -61.5029 -11.634 -10.332
LeftShoulder1  -1.94126e-019 -3.10601e-018 -2.51263e-017
LeftArm  -6.6976 22.1288 -79.0932
LeftForeArm  34.0074 -14.5227 -2.48568
LeftHand  -0.308363 -1.79344 5.16086
RightShoulder  -4.96962e-017 0 -2.36833e-017
RightArm  12.1941 6.25255 84.5227
RightForeArm  55.6355 48.6206 8.75883
RightHand  -0.972069 1.29711 -16.9437
LeftUpLeg  -6.02108 -9.94054 -2.81142
LeftLeg  0.695445 9.30185 -0.483225
LeftFoot  8.28883 -0.0935116 1.50686
LeftToes  -16.3075 1.48321e-006 1.01846e-007
267
root  -55.724 34.96 29.2258 -173.996 35.4493 177.479
RightUpLeg  -5.88743 -16.7395 -5.36955
RightLeg  10.7113 -5.70244 -0.700027
RightFoot  0.998844 -0.0172389 0.0746717
RightToes  -23.4875 -0.0957958 -0.201699
Spine  -1.95402 2.79742 -1.61026
Spine1  -3.90193 5.4507 -2.49848
HEad  -60.2806 -12.4037 -10.0948
LeftShoulder1  -1.94126e-019 -3.10601e-018 -2.51263e-017
LeftArm  -7.29613 21.4697 -79.0154
LeftForeArm  33.1094 -14.6991 -2.54515
LeftHand  -0.323442 -1.47124 5.6328
RightShoulder  -4.96962e-017 0 -2.36833e-017
RightArm  12.4429 6.55443 84.5605
RightForeArm  59.4405 51.2643 9.55601
RightHand  -0.793742 0.683399 -15.2353
LeftUpLeg  -6.06519 -10.0744 -2.79158
LeftLeg  1.11929 9.32604 -0.415686
LeftFoot  8.0359 -0.0896437 1.46592
LeftToes  -16.1429 1.48321e-006 1.01846e-007
268
root  -55.7265 34.9722 29.2071 -174.189 34.8136 177.414
RightUpLeg  -5.59072 -17.0038 -5.48923
RightLeg  10.7517 -6.04444 -0.746193
RightFoot  1.07863 -0.0168755 0.0581422
RightToes  -23.6443 -0.0960778 -0.202006
Spine  -1.89672 2.64265 -1.75995
Spine1  -3.77423 5.11376 -2.76454
HEad  -58.5179 -12.3325 -10.1552
LeftShoulder1  -1.94126e-019 -3.10601e-018 -2.51263e-017
LeftArm  -7.74438 21.8517 -78.4539
LeftForeArm  31.2594 -16.704 -2.81169
LeftHand  -0.314529 -1.27456 5.6269
RightShoulder  -4.96962e-017 0 -2.36833e-017
RightArm  8.92338 5.03346 84.9751
RightForeArm  58.7702 57.7869 12.7455
RightHand  -0.507596 -0.730445 -12.6226
LeftUpLeg  -6.28452 -10.0406 -2.88015
LeftLeg  1.83081 8.66163 -0.279108
LeftFoot  7.82818 -0.0803144 1.33534
LeftToes  -15.9254 1.48321e-006 1.01846e-007
269
root  -55.7469 34.9646 29.2208 -174.188 34.0376 177.374
RightUpLeg  -5.69136 -17.2344 -5.50409
RightLeg  11.1774 -6.57042 -0.860404
RightFoot  0.882397 -0.0185824 0.0711755
RightToes  -23.5101 -0.0963696 -0.202278
Spine  -1.83655 2.22355 -1.78603
Spine1  -3.62982 4.24959 -2.78215
HEad  -56.1497 -10.5799 -11.4455
LeftShoulder1  -1.94126e-019 -3.10601e-018 -2.51263e-017
LeftArm  -7.5997 22.9405 -77.9663
LeftForeArm  28.8157 -19.2613 -3.07823
LeftHand  -0.308831 -1.10919 5.6539
RightShoulder  -4.96962e-017 0 -2.36833e-017
RightArm  5.61533 3.01557 85.0451
RightForeArm  60.2968 65.3149 18.2654
RightHand  -0.45501 -1.0265 -12.0498
LeftUpLeg  -6.39764 -11.0936 -2.8745
LeftLeg  1.82423 8.96758 -0.289903
LeftFoot  7.97575 -0.0836632 1.39843
LeftToes  -16.0166 1.48321e-006 1.01846e-007
270
root  -55.7566 34.9519 29.2396 -174.271 33.8221 177.265
RightUpLeg  -5.97612 -16.9983 -5.55975
RightLeg  11.8359 -7.0082 -0.999371
RightFoot  0.532437 -0.0220855 0.109861
RightToes  -23.1604 -0.0966706 -0.202512
Spine  -1.69743 1.79002 -1.70802
Spine1  -3.33362 3.37457 -2.59578
HEad  -54.8924 -7.10719 -13.2451
LeftShoulder1  -1.94126e-019 -3.10601e-018 -2.51263e-017
LeftArm  -7.34513 24.3946 -77.7257
LeftForeArm  27.3373 -21.7294 -3.33689
LeftHand  -0.314388 -0.977059 5.86161
RightShoulder  -4.96962e-017 0 -2.36833e-017
RightArm  4.65797 2.27149 85.3852
RightForeArm  64.9344 70.4785 24.3123
RightHand  -0.332117 -2.57013 -13.3609
LeftUpLeg  -6.44045 -11.052 -2.95178
LeftLeg  1.85838 8.70485 -0.276315
LeftFoot  7.96976 -0.0804837 1.35904
LeftToes  -15.8883 1.48321e-006 1.01846e-007
271
root  -55.7518 34.9439 29.2676 -174.349 34.354 177.149
RightUpLeg  -6.41416 -16.4503 -5.60165
RightLeg  12.4417 -7.02378 -1.07737
RightFoot  0.285497 -0.0251768 0.142653
RightToes  -22.983 -0.0969803 -0.202707
Spine  -1.60513 1.56227 -1.61393
Spine1  -3.14742 2.93069 -2.39402
HEad  -54.8447 -3.79408 -14.5238
LeftShoulder1  -1.94126e-019 -3.10601e-018 -2.51263e-017
LeftArm  -6.60016 25.3265 -77.6921
LeftForeArm  26.7316 -22.315 -3.40571
LeftHand  -0.333514 -1.13738 6.07249
RightShoulder  -4.96962e-017 0 -2.36833e-017
RightArm  5.84821 2.75817 85.2445
RightForeArm  63.0498 70.6084 24.8114
RightHand  -0.445142 -2.02645 -15.1743
LeftUpLeg  -6.22232 -10.6485 -3.03071
LeftLeg  1.44176 8.81431 -0.34362
LeftFoot  8.17256 -0.0830111 1.40741
LeftToes  -16.0825 1.48321e-006 1.01846e-007
272
root  -55.7206 34.9425 29.3129 -174.303 35.5784 177.18
RightUpLeg  -6.87708 -15.6741 -5.46267
RightLeg  12.6892 -6.62917 -1.04647
RightFoot  0.232733 -0.0266325 0.152071
RightToes  -22.8162 -0.0972983 -0.202859
Spine  -1.60745 1.6872 -1.63361
Spine1  -3.16585 3.2008 -2.44458
HEad  -55.1075 -2.37247 -14.7046
LeftShoulder1  -1.94126e-019 -3.10601e-018 -2.51263e-017
LeftArm  -5.51484 25.6321 -77.5447
LeftForeArm  26.6829 -21.3632 -3.24489
LeftHand  -0.327181 -1.34836 5.79005
RightShoulder  -4.96962e-017 0 -2.36833e-017
RightArm  9.22609 3.69777 85.0711
RightForeArm  59.1005 66.5839 19.737
RightHand  -0.603087 -1.48878 -17.8182
LeftUpLeg  -6.00975 -9.62653 -2.95758
LeftLeg  1.0552 8.98642 -0.410704
LeftFoot  8.245 -0.0850436 1.44717
LeftToes  -16.2542 1.48321e-006 1.01846e-007
273
root  -55.6831 34.9469 29.3607 -174.126 36.8596 177.358
RightUpLeg  -7.13155 -15.243 -5.21472
RightLeg  12.4169 -5.82647 -0.891907
RightFoot  0.394992 -0.0263179 0.136196
RightToes  -22.7537 -0.0976239 -0.202965
Spine  -1.68662 1.97424 -1.71126
Spine1  -3.33974 3.78751 -2.61834
HEad  -55.6496 -2.51171 -14.145
LeftShoulder1  -1.94126e-019 -3.10601e-018 -2.51263e-017
LeftArm  -4.80909 25.0418 -77.528
LeftForeArm  27.7064 -18.6128 -2.84993
LeftHand  -0.310823 -1.70505 5.25852
RightShoulder  -4.96962e-017 0 -2.36833e-017
RightArm  13.2138 4.98927 85.1349
RightForeArm  59.5301 59.7664 13.8944
RightHand  -0.721985 -1.06608 -19.2768
LeftUpLeg  -5.91266 -8.79725 -2.75501
LeftLeg  0.834243 9.42312 -0.466704
LeftFoot  8.2274 -0.0886908 1.51117
LeftToes  -16.4434 1.48321e-006 1.01846e-007
